<svg enable-background="new 0 0 250 250" viewBox="0 0 250 250" xmlns="http://www.w3.org/2000/svg"><g fill="#777"><path d="m242 194.68h-234v-148.79h234zm-222.02-11.99h210.03v-124.82h-210.03z"/><path d="m245 197.68h-240v-154.79h240zm-234.01-6h228.01v-142.8h-228.01zm222.02-5.99h-216.02v-130.81h216.03v130.81zm-210.03-5.99h204.04v-118.83h-204.04z"/><path d="m13.99 96.7h221.24v11.99h-221.24z"/><path d="m238.23 111.68h-227.24v-17.98h227.23v17.98zm-221.24-5.99h215.25v-5.99h-215.25z"/><path d="m44.48 140.48h64.1v11.99h-64.1z"/><path d="m111.58 155.46h-70.1v-17.98h70.1zm-64.1-5.99h58.11v-5.99h-58.11z"/></g></svg>