<?xml version="1.0" encoding="utf-8"?>
<!-- Generator: Adobe Illustrator 26.5.0, SVG Export Plug-In . SVG Version: 6.00 Build 0)  -->
<svg version="1.1" id="Layer_1" xmlns="http://www.w3.org/2000/svg" xmlns:xlink="http://www.w3.org/1999/xlink" x="0px" y="0px"
	 viewBox="0 0 512 512" style="enable-background:new 0 0 512 512;" xml:space="preserve">
<style type="text/css">
	.st0{fill-rule:evenodd;clip-rule:evenodd;fill:#E00707;}
	.st1{fill:#E00707;}
</style>
<path class="st0" d="M24,128c0-13.3,10.7-24,24-24h276c13.3,0,24,10.7,24,24v48h55.8c8.5,0,16.3,4.4,20.6,11.7l29.9,50.1
	c1.3,2.1,3.5,3.5,5.9,3.8l10.6,1.3c12.1,1.5,21.1,11.7,21.1,23.8V348c0,13.3-10.7,24-24,24h-28.2c-2,24.6-22.7,44-47.8,44
	c-25.2,0-45.8-19.4-47.8-44H175.8c-2,24.6-22.7,44-47.8,44s-45.8-19.4-47.8-44H48c-13.3,0-24-10.7-24-24V128z M348,348.8
	c7.4-16.9,24.3-28.8,44-28.8c22.4,0,41.2,15.3,46.5,36H468c4.4,0,8-3.6,8-8v-81.2c0-4-3-7.5-7-7.9l-10.6-1.3
	c-7.4-0.9-13.9-5.2-17.7-11.5l-29.9-50.1c-1.4-2.4-4.1-3.9-6.9-3.9H348V348.8z M332,356H174.5c-5.3-20.7-24.1-36-46.5-36
	s-41.2,15.3-46.5,36H48c-4.4,0-8-3.6-8-8V128c0-4.4,3.6-8,8-8h276c4.4,0,8,3.6,8,8V356z M128,400c17.7,0,32-14.3,32-32
	s-14.3-32-32-32s-32,14.3-32,32S110.3,400,128,400z M424,368c0,17.7-14.3,32-32,32c-17.7,0-32-14.3-32-32s14.3-32,32-32
	C409.7,336,424,350.3,424,368z"/>
<path class="st1" d="M77.2,277.9c-1.6,0-3-0.6-4.3-1.8c-1.1-1.2-1.7-2.6-1.7-4.3v-65.5c0-1.6,0.6-3,1.7-4.3c1.2-1.2,2.6-1.8,4.3-1.8
	h35.1c1.6,0,3,0.6,4.3,1.8c1.2,1.2,1.8,2.6,1.8,4.3s-0.6,3-1.8,4.3c-1.2,1.1-2.6,1.7-4.3,1.7H87c-0.6,0-0.9,0.3-0.9,1v18.6
	c0,0.6,0.3,0.9,0.9,0.9h23.5c1.6,0,2.9,0.6,4,1.7c1.1,1.1,1.7,2.4,1.7,4s-0.6,3-1.7,4.1c-1.1,1.1-2.5,1.6-4,1.6H87
	c-0.6,0-0.9,0.3-0.9,0.9v26.8c0,1.6-0.6,3-1.8,4.3s-2.6,1.8-4.3,1.8H77.2z M148.3,212.4v23.1c0,0.6,0.3,0.9,1,0.9h5.3
	c12.6,0,18.9-4.5,18.9-13.5c0-8-5.9-12-17.6-12c-2.1,0-4.4,0.2-6.7,0.5C148.6,211.5,148.3,211.8,148.3,212.4z M139.6,277.9
	c-1.6,0-3-0.6-4.3-1.8c-1.2-1.2-1.8-2.6-1.8-4.3v-65c0-1.7,0.6-3.2,1.7-4.6c1.1-1.3,2.6-2.1,4.3-2.2c6-0.6,11.8-0.9,17.4-0.9
	c10.4,0,18.2,2,23.4,5.9c5.2,3.8,7.8,9.3,7.8,16.3c0,5-1.4,9.5-4.1,13.3c-2.7,3.8-6.3,6.5-11,8.1c-0.1,0-0.1,0-0.1,0.1
	c0,0.1,0,0.2,0.1,0.2c3.4,2.1,6.3,6.3,8.7,12.6l6.4,16.7c0.5,1.3,0.3,2.6-0.5,3.8c-0.8,1.2-1.9,1.8-3.3,1.8H181
	c-1.8,0-3.5-0.5-5-1.5c-1.5-1.1-2.6-2.4-3.2-4.1l-6-16.4c-1.3-3.4-2.7-5.6-4.4-6.7c-1.6-1.1-4.4-1.6-8.4-1.6h-4.9c-0.6,0-1,0.3-1,1
	v23.3c0,1.6-0.6,3-1.8,4.3c-1.1,1.2-2.5,1.8-4.1,1.8H139.6z M207.1,277.9c-1.6,0-3-0.6-4.3-1.8c-1.2-1.2-1.8-2.6-1.8-4.3v-65.5
	c0-1.6,0.6-3,1.8-4.3c1.2-1.2,2.6-1.8,4.3-1.8h36.2c1.6,0,3,0.6,4.3,1.8c1.2,1.2,1.8,2.6,1.8,4.3s-0.6,3-1.8,4.3
	c-1.2,1.1-2.6,1.7-4.3,1.7h-26.4c-0.6,0-1,0.3-1,1v17.1c0,0.6,0.3,1,1,1h24.6c1.6,0,3,0.6,4,1.7c1.1,1.1,1.7,2.5,1.7,4
	c0,1.6-0.6,2.9-1.7,4c-1.1,1.1-2.4,1.6-4,1.6h-24.6c-0.6,0-1,0.3-1,1v21.3c0,0.6,0.3,1,1,1h26.4c1.6,0,3,0.6,4.3,1.8
	c1.2,1.1,1.8,2.5,1.8,4.1c0,1.6-0.6,3-1.8,4.3c-1.2,1.2-2.6,1.8-4.3,1.8H207.1z M271.1,277.9c-1.6,0-3-0.6-4.3-1.8
	c-1.2-1.2-1.8-2.6-1.8-4.3v-65.5c0-1.6,0.6-3,1.8-4.3c1.2-1.2,2.6-1.8,4.3-1.8h36.2c1.6,0,3,0.6,4.3,1.8c1.2,1.2,1.8,2.6,1.8,4.3
	s-0.6,3-1.8,4.3c-1.2,1.1-2.6,1.7-4.3,1.7h-26.4c-0.6,0-1,0.3-1,1v17.1c0,0.6,0.3,1,1,1h24.6c1.6,0,3,0.6,4,1.7
	c1.1,1.1,1.7,2.5,1.7,4c0,1.6-0.6,2.9-1.7,4c-1.1,1.1-2.4,1.6-4,1.6h-24.6c-0.6,0-1,0.3-1,1v21.3c0,0.6,0.3,1,1,1h26.4
	c1.6,0,3,0.6,4.3,1.8c1.2,1.1,1.8,2.5,1.8,4.1c0,1.6-0.6,3-1.8,4.3s-2.6,1.8-4.3,1.8H271.1z"/>
</svg>
