<?xml version="1.0" encoding="utf-8"?>
<!-- Generator: Adobe Illustrator 26.5.0, SVG Export Plug-In . SVG Version: 6.00 Build 0)  -->
<svg version="1.1" id="Layer_1" xmlns="http://www.w3.org/2000/svg" xmlns:xlink="http://www.w3.org/1999/xlink" x="0px" y="0px"
	 viewBox="0 0 512 512" style="enable-background:new 0 0 512 512;" xml:space="preserve">
<style type="text/css">
	.st0{fill:#DF1F26;}
</style>
<g>
	<path class="st0" d="M484.9,332.97c-4.06-3.19-8.93-4.25-14.89-3.24l-0.34-0.86c-0.35-0.87-0.66-1.64-0.94-2.42
		c-18.35-50.45-36.7-100.91-55.04-151.36l-16.36-45c-2.16-5.94-4.59-7.11-10.42-5.03c-13.44,4.82-26.89,9.64-40.33,14.46
		c-12.09,4.34-24.19,8.67-36.28,13.01c-5.99,2.15-11.98,4.28-18.03,6.43l-7.81,2.78l-0.36-0.88c-0.41-0.98-0.78-1.88-1.13-2.79
		l-41.71-110.8c-2.28-6.05-4.59-7.15-10.76-5.08l-78.51,26.32c-4.33,1.45-8.67,2.9-13.04,4.36l-7.9,2.64l-1.36-3.84
		c-6-17.05-15.41-28.66-28.77-35.51C86.88,29,71.34,28.92,53.41,35.96C37.92,42.04,28.14,51.38,23.5,64.51
		c-5.74,16.24-3.66,32.75,6.36,50.46c1.82,3.22,5.69,5.32,7.27,6.08c6.46,3.09,14.01,1.74,19.22-3.45
		c4.9-4.88,6.24-12.38,3.48-19.58c-2.19-5.72-3.59-10.46-4.42-14.94c-1.03-5.59,1.36-10.24,6.55-12.75
		c3.69-1.78,7.85-3.24,12.38-4.32c6.89-1.65,12.75,0.66,16.94,6.67c2.38,3.41,4.4,7.45,5.84,11.68
		c16.34,47.77,32.64,95.55,48.95,143.33l0.83,2.43c17.46,51.16,35.49,104,53.27,155.96c1.14,3.34,0.74,5.01-1.78,7.45
		c-14.51,14.06-19.14,36.29-11.52,55.33c7.62,19.04,26.43,32.07,46.81,32.43c0.31,0.01,0.62,0.01,0.94,0.01
		c12.79,0,25.04-4.68,34.48-13.19c9.7-8.74,15.67-20.79,16.8-33.92c0.26-3.02,1.17-4.22,3.9-5.16
		c41.84-14.38,84.33-29.12,125.43-43.37l34.13-11.83c9.33-3.23,19.9-6.89,30.18-10.51c6.73-2.37,10.71-7.06,11.83-13.94
		C492.46,342.7,490.29,337.19,484.9,332.97z M475.16,351.97c-5.17,1.86-10.45,3.68-15.55,5.44l-4.06,1.41
		c-55.93,19.39-111.86,38.78-167.79,58.17c-0.73,0.25-1.47,0.49-2.3,0.75l-0.52,0.17l-3.42-9.89l188.66-65.47
		c0.46-0.16,0.93-0.31,1.4-0.45l0.25-0.08c3.43-1.06,6.39,0.09,7.37,2.87C480.31,348.01,478.8,350.66,475.16,351.97z M234.97,390.37
		l0.23,0c21.19,0.12,39,18.36,38.9,39.82c-0.05,10.31-4.2,20.06-11.69,27.46c-7.49,7.41-17.34,11.49-27.72,11.49l-0.28,0
		c-21.65-0.15-39.16-17.9-39.02-39.57C195.54,407.96,213.29,390.37,234.97,390.37z M48.26,101.94c1.56,4.01,0.94,6.62-1.88,7.98
		c-3.05,1.47-5.69,0.32-7.43-3.24c-4.99-10.23-7-19.65-6.14-28.81c1.08-11.5,6.44-20.23,15.91-25.94
		c13.53-8.16,25.97-10.77,38.05-7.97c14.99,3.47,25.26,13.84,31.39,31.7c9.56,27.85,19.17,56.21,28.46,83.64l0.44,1.31
		c5.74,16.94,11.48,33.88,17.25,50.81c12.27,36.04,24.58,72.06,36.88,108.09l0.16,0.47c5.86,17.17,11.73,34.33,17.59,51.5
		c0.65,1.9,1.29,3.8,1.94,5.77l0.89,2.64l-9.66,3.62l-0.2-0.54c-0.35-0.93-0.7-1.87-1.03-2.81l-19.94-58.49
		c-27-79.21-54.92-161.12-82.48-241.64c-1.85-5.4-4.5-10.53-7.67-14.85c-5.65-7.7-13.28-11.77-22.09-11.77
		c-1.83,0-3.73,0.18-5.66,0.52c-5.02,0.9-9.61,2.26-13.65,4.03c-13.08,5.73-18.49,16.16-15.65,30.15c0.94,4.64,2.69,9.16,4.39,13.52
		L48.26,101.94z M236.39,378.31c-1.78-0.08-2.47-0.39-3.03-2.03c-14.74-43.43-29.79-87.57-44.34-130.27l-11.07-32.47
		c-0.05-0.16-0.08-0.32-0.13-0.62l-0.01-0.04l209.4-75l71.24,195.86l-11.45,3.99c-6.21,2.17-12.36,4.31-18.52,6.45l-33.3,11.56
		c-38.28,13.28-77.87,27.02-116.76,40.59c-2.83,0.99-4.23,0.65-6.22-1.54C262.9,384.52,250.84,378.98,236.39,378.31z M173.84,201.41
		L134.88,87.07l96.23-32.21l41.82,111.03L173.84,201.41z"/>
	<path class="st0" d="M277.18,309.11c0.43,1.34,0.93,2.85,2.06,3.57c0.79,0.5,2.85,1.67,4.8,1.67c0.43,0,0.83-0.06,1.19-0.18
		c1.79-0.59,3.34-2.87,3.94-4.81c0.45-1.45-0.11-3.12-0.61-4.61c-0.08-0.23-0.15-0.45-0.22-0.66c-1.11-3.51-2.34-7.13-3.42-10.33
		l-1.08-3.2c5.12-2.68,9.46-2.27,13.62,1.28c4.2,3.58,8.32,7.06,12.49,10.38c3.3,2.63,6.92,2.63,9.45-0.01
		c2.43-2.54,2.1-5.01-1.14-8.53c-4.93-5.34-10.19-9.06-16.05-11.35c0.23-0.17,0.44-0.34,0.65-0.5c7.09-5.55,8.79-11.56,5.34-18.92
		c-3.28-7-10.09-9.85-18.21-7.63c-5.56,1.52-11.12,3.4-16.51,5.23c-1.21,0.41-2.42,0.82-3.63,1.23c-5.91,1.98-7.09,4.42-5.08,10.46
		c3.59,10.79,7.48,22.34,12.24,36.35L277.18,309.11z M276.77,269.46c1.18-0.38,2.35-0.76,3.52-1.15c3.26-1.07,6.34-2.09,9.52-2.89
		c3.52-0.89,6.32,0.5,7.52,3.7c1.25,3.36,0.11,5.9-3.4,7.55c-3.01,1.42-6.11,2.55-9.41,3.76c-1.17,0.43-2.35,0.86-3.53,1.31
		l-0.18-0.43c-0.29-0.68-0.51-1.21-0.7-1.75c-0.86-2.55-1.7-5.11-2.58-7.8L276.77,269.46z"/>
	<path class="st0" d="M327.25,292.42c1.08,3.12,2.79,4.57,5.41,4.57c0,0,0,0,0,0c0.83,0,1.76-0.14,2.83-0.44
		c1.51-0.42,2.98-0.91,4.41-1.4l0.67-0.23c7.57-2.54,15.13-5.09,22.69-7.64c4.68-1.58,4.83-4.42,4.14-6.53
		c-0.48-1.46-1.29-2.47-2.39-3.02c-1.32-0.65-2.98-0.62-5.08,0.12c-1.47,0.51-2.95,1-4.44,1.48c-0.86,0.28-1.71,0.56-2.57,0.84
		l-15.3,5.12l-4.15-12.53l5.48-1.85c4.3-1.45,8.49-2.86,12.67-4.29c3.71-1.26,6.92-2.74,5.63-6.86c-0.43-1.36-1.11-2.25-2.08-2.75
		c-1.45-0.74-3.48-0.58-6.81,0.54c-4.5,1.51-9,3.02-13.59,4.57l-4.4,1.48l-3.58-10.62l6.11-2.07c5.41-1.83,10.65-3.6,15.88-5.4
		c4.16-1.42,4.4-4.06,3.87-6.03c-0.39-1.44-1.14-2.48-2.23-3.07c-1.21-0.66-2.78-0.71-4.52-0.14c-11.23,3.65-19.78,6.53-27.71,9.33
		c-3.99,1.41-5.28,4.05-3.97,8.08C318.62,267.09,323,280.12,327.25,292.42z"/>
	<path class="st0" d="M373.01,275.73c1.18,3.46,2.64,5.77,5.91,5.77c1.09,0,2.36-0.25,4-0.78c7.14-2.33,14.3-4.74,21.22-7.08
		l4.51-1.52c0.18-0.06,0.37-0.12,0.57-0.17c0.91-0.27,1.94-0.57,2.41-1.39l0.12-0.21c0.96-1.64,2.15-3.69,1.58-5.26
		c-0.46-1.28-2.1-2.34-4.86-3.13c-0.97-0.28-2.01,0.17-2.98,0.58c-0.3,0.13-0.59,0.25-0.87,0.35c-4.73,1.57-9.47,3.14-14.28,4.74
		l-6.46,2.15l-4.19-12.49l2.55-0.88c2.34-0.81,4.59-1.58,6.84-2.35c1.42-0.48,2.84-0.96,4.27-1.44l0.27-0.09
		c2.05-0.69,4.1-1.38,6.14-2.09c4.38-1.51,4.24-4.46,3.77-6.08c-1.29-4.42-5.43-3.34-6.79-2.98c-0.63,0.16-1.23,0.38-1.86,0.61
		c-0.29,0.1-0.58,0.21-0.87,0.31l-17.4,5.79l-3.56-10.56l0.8-0.3c0.92-0.35,1.7-0.64,2.49-0.91c2-0.68,4.01-1.35,6.05-2.03
		c4.15-1.38,8.45-2.81,12.64-4.33c2.22-0.8,3.81-2.56,4.07-4.48c0.2-1.49-0.43-2.86-1.72-3.76c-1.64-1.14-4.3-1.2-5.98-0.68
		c-9.09,2.83-18.12,5.94-25.76,8.6c-5.54,1.93-6.65,4.27-4.75,10C364.88,251.7,368.96,263.84,373.01,275.73z"/>
	<path class="st0" d="M255.21,289.47c-1.22,0.32-2.43,0.72-3.61,1.12l-0.48,0.16c-3.19,1.06-6.37,2.13-9.63,3.22l-2.94,0.98
		l-3.7-11.13l3.06-1.03c1.55-0.53,3.11-1.05,4.69-1.59c3.94-1.33,8.01-2.7,11.98-4.14c2.72-0.98,3.94-3.12,3.25-5.72
		c-0.74-2.77-2.83-3.99-5.9-3.44c-0.89,0.16-1.77,0.45-2.49,0.69l-4.16,1.39c-5.63,1.88-11.26,3.76-16.88,5.67
		c-6.49,2.21-7.68,4.6-5.5,11.1c4.25,12.71,8.4,25.03,11.91,35.39c0.4,1.19,0.86,2.54,1.61,3.73c1.21,1.92,2.85,2.93,4.74,2.93
		c0.76,0,1.56-0.16,2.38-0.48c2.88-1.12,4.24-3.51,3.72-6.55c-0.25-1.46-0.72-2.87-1.17-4.25l-0.31-0.94
		c-1.01-3.12-2.03-6.23-3.07-9.36l-1.03-3.13l0.75-0.28c0.92-0.34,1.71-0.63,2.5-0.91c1.44-0.49,2.89-0.98,4.4-1.49
		c2.94-0.99,5.97-2.01,8.94-3.1c2.65-0.98,3.72-3.25,2.79-5.94C260.16,289.81,258.04,288.75,255.21,289.47z"/>
	<path class="st0" d="M234.78,454.54c13.53,0,24.66-11,24.8-24.52c0.07-6.48-2.47-12.68-7.15-17.45
		c-4.69-4.79-10.86-7.46-17.38-7.52l-0.24,0c-6.51,0-12.66,2.53-17.32,7.12c-4.76,4.69-7.39,10.96-7.42,17.66
		c-0.03,6.57,2.52,12.76,7.18,17.43C221.91,451.94,228.1,454.52,234.78,454.54z M235,417.21c3.21,0.03,6.41,1.46,8.8,3.92
		c2.39,2.46,3.71,5.71,3.64,8.92c-0.16,6.84-5.84,12.35-12.71,12.35c-0.05,0-0.11,0-0.16,0c-3.32-0.04-6.44-1.38-8.77-3.78
		c-2.35-2.42-3.62-5.62-3.56-9c0.12-6.84,5.79-12.41,12.65-12.41v-0.5L235,417.21z"/>
</g>
</svg>
