<svg enable-background="new 0 0 250 250" viewBox="0 0 250 250" xmlns="http://www.w3.org/2000/svg"><path d="m113.88 120.91v28.95h-9.19v-71.51h24.37c5.88-.13 11.56 2.1 15.78 6.19 4.28 3.85 6.68 9.35 6.59 15.1.13 5.78-2.28 11.33-6.59 15.19-4.27 4.07-9.53 6.1-15.78 6.09h-15.18zm0-33.76v24.98h15.4c3.42.1 6.71-1.24 9.09-3.7 4.83-4.69 4.95-12.41.24-17.24l-.24-.24c-2.35-2.51-5.66-3.89-9.09-3.8zm58.73 12.18c6.8 0 12.15 1.81 16.08 5.44s5.89 8.61 5.89 14.93v30.17h-8.78v-6.8h-.4c-3.81 5.59-8.87 8.4-15.19 8.4-5.39 0-9.9-1.6-13.53-4.8-3.52-2.97-5.52-7.37-5.44-11.98 0-5.07 1.91-9.09 5.74-12.08s8.93-4.5 15.33-4.5c5.45 0 9.95 1 13.48 2.99v-2.1c.02-3.14-1.37-6.13-3.8-8.13-2.43-2.19-5.6-3.39-8.87-3.35-5.12 0-9.19 2.16-12.18 6.49l-8.09-5.09c4.44-6.4 11.03-9.59 19.76-9.59zm-11.9 35.56c-.01 2.37 1.12 4.6 3.04 5.99 2.03 1.6 4.56 2.45 7.14 2.39 3.88-.01 7.6-1.55 10.34-4.3 3.04-2.87 4.57-6.22 4.57-10.09-2.87-2.28-6.86-3.43-11.98-3.43-3.73 0-6.85.9-9.34 2.7-2.51 1.85-3.77 4.08-3.77 6.74zm84.33-33.96-30.68 70.52h-9.48l11.39-24.68-20.19-45.84h9.99l14.59 35.16h.2l14.19-35.16z" fill="#5f6368"/><path d="m85.59 122.94c0-2.8-.23-5.59-.71-8.36h-38.76v15.82h22.19c-.92 5.11-3.88 9.62-8.21 12.48v10.28h13.25c7.77-7.12 12.24-17.7 12.24-30.22z" fill="#4285f4"/><path d="m46.12 163.11c11.09 0 20.43-3.64 27.24-9.92l-13.25-10.28c-3.69 2.5-8.44 3.93-13.99 3.93-10.72 0-19.81-7.23-23.07-16.96h-13.64v10.59c6.97 13.87 21.18 22.64 36.71 22.64z" fill="#34a853"/><path d="m23.06 129.87c-1.72-5.1-1.72-10.63 0-15.73v-10.58h-13.65c-5.83 11.61-5.83 25.3 0 36.91z" fill="#fbbc04"/><path d="m46.12 97.19c5.86-.09 11.52 2.12 15.76 6.16l11.74-11.73c-7.44-6.98-17.29-10.82-27.5-10.71-15.53 0-29.74 8.76-36.71 22.64l13.65 10.59c3.25-9.73 12.34-16.95 23.06-16.95z" fill="#ea4335"/></svg>