<?xml version="1.0" encoding="utf-8"?>
<!-- Generator: Adobe Illustrator 26.5.0, SVG Export Plug-In . SVG Version: 6.00 Build 0)  -->
<svg version="1.1" id="Layer_1" xmlns="http://www.w3.org/2000/svg" xmlns:xlink="http://www.w3.org/1999/xlink" x="0px" y="0px"
	 viewBox="0 0 512 512" style="enable-background:new 0 0 512 512;" xml:space="preserve">
<style type="text/css">
	.st0{fill-rule:evenodd;clip-rule:evenodd;fill:#E00707;}
</style>
<path class="st0" d="M83.2,423.8c0,4.4-3.6,8-8,8c-4.4,0-8-3.6-8-8c0-4.4,3.6-8,8-8C79.6,415.8,83.2,419.4,83.2,423.8
	C83.2,423.8,83.2,423.8,83.2,423.8z M16,297.6v157.8h89.1V297.6H16z M122.1,324.6c9.1-14.3,24.4-23.4,41.3-24.5h123.2
	c14.6,0,26.4,11.8,26.4,26.4c0,5-1.4,10-4.2,14.2c-4.8,7.6-13.2,12.2-22.3,12.2h-99.1c-4.4,0-8,3.6-8,8s3.6,8,8,8h99.1
	c14.5,0,27.9-7.4,35.7-19.6c0.2-0.2,0.3-0.5,0.4-0.7c1-0.1,2-0.5,2.9-1l139.2-80.4c9.6-5.5,21.8-2.2,27.3,7.3
	c0.3,0.6,0.8,1.2,1.3,1.7c2,1.9,2.9,4.6,2.5,7.4c-0.5,6.2-5.4,13.9-11.9,18.8L321.7,422.9c-8.6,6.6-19.3,10.1-30.1,10H121.1V325.9
	C121.5,325.5,121.8,325.1,122.1,324.6L122.1,324.6z M14.4,471.4h92.2c8,0,14.4-6.5,14.4-14.4v-8.1h170.5
	c14.3,0.2,28.3-4.5,39.7-13.1l162.3-120.4c10.4-7.7,17.5-19.6,18.4-30.5c0.7-7-1.7-13.9-6.5-19.1c-10.2-16.6-31.8-22-48.6-12.3
	l-127.8,73.8c0-0.2,0-0.5,0-0.7c0-23.4-19-42.4-42.5-42.4H163.2c-0.1,0-0.3,0-0.4,0c-15.4,0.9-30.1,7-41.7,17.2V296
	c0-8-6.5-14.4-14.4-14.4H14.4c-8,0-14.4,6.5-14.4,14.4v161C0,465,6.5,471.4,14.4,471.4L14.4,471.4z M169.3,56.6h93.4l-31.2,43.7
	h-93.4L169.3,56.6z M387.1,56.6l31.3,43.7H325l-31.2-43.7L387.1,56.6z M389.1,241.6c0,3.6-2.9,6.5-6.6,6.5h-96.3V73.5l28.2,39.4
	c1.5,2.1,3.9,3.3,6.5,3.3h68.2L389.1,241.6z M167.4,241.6V116.2h68.2c2.6,0,5-1.2,6.5-3.3l28.2-39.4v174.7h-96.3
	C170.3,248.2,167.4,245.3,167.4,241.6C167.4,241.6,167.4,241.6,167.4,241.6L167.4,241.6z M173.9,264.2h208.6
	c12.4,0,22.5-10.1,22.6-22.6V116.2h19.4c7.1,0,12.8-5.7,12.8-12.8c0-2.7-0.8-5.3-2.4-7.5l-37.2-52c-1.5-2.1-3.9-3.3-6.5-3.3H165.2
	c-2.6,0-5,1.2-6.5,3.3l-37.2,52c-4.1,5.8-2.8,13.8,2.9,17.9c2.2,1.6,4.8,2.4,7.5,2.4h19.4v125.4
	C151.4,254.1,161.5,264.2,173.9,264.2L173.9,264.2z"/>
</svg>
