<?xml version="1.0" encoding="utf-8"?>
<!-- Generator: Adobe Illustrator 26.5.0, SVG Export Plug-In . SVG Version: 6.00 Build 0)  -->
<svg version="1.1" id="Layer_1" xmlns="http://www.w3.org/2000/svg" xmlns:xlink="http://www.w3.org/1999/xlink" x="0px" y="0px"
	 viewBox="0 0 512 512" style="enable-background:new 0 0 512 512;" xml:space="preserve">
<style type="text/css">
	.st0{fill:#E00707;}
</style>
<g>
	<circle class="st0" cx="75.2" cy="423.8" r="8"/>
	<path class="st0" d="M505.4,265.8c-10.2-16.6-31.8-22-48.6-12.3L329,327.3c0-0.2,0-0.5,0-0.7c0-23.4-19-42.4-42.5-42.4H163.2
		c-0.1,0-0.3,0-0.4,0c-15.4,0.9-30.1,7-41.7,17.2V296c0-8-6.5-14.4-14.4-14.4H14.4c-8,0-14.4,6.5-14.4,14.4v161
		c0,8,6.5,14.4,14.4,14.4h92.2c8,0,14.4-6.5,14.4-14.4v-8.1h170.5c14.3,0.2,28.3-4.5,39.7-13.1l162.3-120.4
		c10.4-7.7,17.5-19.6,18.4-30.5C512.6,277.9,510.2,271,505.4,265.8z M105.1,455.4H16V297.6h89.1V455.4z M495.8,283.6
		c-0.5,6.2-5.4,13.9-11.9,18.8L321.7,422.9c-8.6,6.6-19.3,10.1-30.1,10H121.1v-107c0.4-0.4,0.7-0.8,1-1.3
		c9.1-14.3,24.4-23.4,41.3-24.5h123.2c14.6,0,26.4,11.8,26.4,26.4c0,5-1.4,10-4.2,14.2c-4.8,7.6-13.2,12.2-22.3,12.2h-99.1
		c-4.4,0-8,3.6-8,8c0,4.4,3.6,8,8,8h99.1c14.5,0,27.9-7.4,35.7-19.6c0.2-0.2,0.3-0.5,0.4-0.7c1-0.1,2-0.5,2.9-1l139.2-80.4
		c9.6-5.5,21.8-2.2,27.3,7.3c0.3,0.6,0.8,1.2,1.3,1.7C495.3,278.1,496.2,280.8,495.8,283.6z"/>
	<path class="st0" d="M124.4,113.8c2.2,1.6,4.8,2.4,7.5,2.4h19.4v125.4c0.1,12.5,10.2,22.6,22.6,22.6h208.6
		c12.4,0,22.5-10.1,22.6-22.6V116.2h19.4c7.1,0,12.8-5.7,12.8-12.8c0-2.7-0.8-5.3-2.4-7.5l-37.2-52c-1.5-2.1-3.9-3.3-6.5-3.3h-226
		c-2.6,0-5,1.2-6.5,3.3l-37.2,52C117.4,101.7,118.7,109.7,124.4,113.8z M387.1,56.6l31.3,43.7H325l-31.2-43.7H387.1z M286.2,73.5
		l28.2,39.4c1.5,2.1,3.9,3.3,6.5,3.3h68.2v125.4c0,3.6-2.9,6.5-6.6,6.5h-96.3V73.5z M270.3,248.2H174c-3.7,0-6.6-2.9-6.6-6.6V116.2
		h68.2c2.6,0,5-1.2,6.5-3.3l28.2-39.4V248.2z M169.3,56.6h93.4l-31.2,43.7h-93.4L169.3,56.6z"/>
</g>
</svg>
