<?xml version="1.0" encoding="utf-8"?>
<!-- Generator: Adobe Illustrator 26.3.1, SVG Export Plug-In . SVG Version: 6.00 Build 0)  -->
<svg version="1.1" id="Layer_1" xmlns="http://www.w3.org/2000/svg" xmlns:xlink="http://www.w3.org/1999/xlink" x="0px" y="0px"
	 viewBox="0 0 250 250" style="enable-background:new 0 0 250 250;" xml:space="preserve">
<style type="text/css">
	.st0{fill:#282828;}
</style>
<g id="DwAOi7.tif">
	<g>
		<path class="st0" d="M65.59,52.56c-12.68,0-24.82,0-36.95,0c-11.57,0-17.15-6.61-15.27-18.09C16.05,18.03,29.31,6.44,45.92,6.42
			c52.58-0.07,105.17-0.08,157.75,0c19.17,0.03,33.23,14.57,33.27,34.27c0.07,36.13,0.02,72.25,0.02,108.38
			c0,21.51-0.1,43.02,0.05,64.53c0.06,8.5-2.85,15.18-10.05,19.93c-2.05,1.35-3.8,3.14-5.67,4.75c-8.3,7.17-17.66,7.15-25.84-0.07
			c-1.39-1.23-2.74-2.5-4.17-3.67c-6.66-5.46-15.68-5.62-22.51-0.34c-2.11,1.63-4.03,3.52-6.1,5.21
			c-6.82,5.56-15.84,5.62-22.73,0.15c-1.61-1.28-3.1-2.71-4.65-4.06c-7.89-6.9-17.28-6.92-25.1-0.05c-1.31,1.15-2.61,2.33-3.94,3.47
			c-7.09,6.1-16.5,6.27-23.72,0.43c-3.28-2.65-6.56-5.29-9.78-8.01c-5.26-4.44-7.19-10.27-7.18-17.01
			c0.04-35.41,0.02-70.81,0.02-106.22c0-17.29,0-34.58,0-51.87C65.59,55.14,65.59,54.03,65.59,52.56z M74.99,19.52
			c4.85,9.85,4.59,19.84,4.55,29.83c-0.07,19.76-0.02,39.53-0.02,59.29c0,35.1,0.04,70.21-0.06,105.31
			c-0.01,3.87,1.03,6.72,4.45,8.77c2,1.2,3.75,2.88,5.5,4.46c4.82,4.39,6.04,4.41,10.83,0c14.35-13.19,31.96-13.12,46.12,0.18
			c4.43,4.16,5.87,4.16,10.35,0.03c0.53-0.49,1.04-1,1.57-1.48c8.16-7.27,17.62-9.83,28.33-7.74c7.04,1.37,12.58,5.3,17.61,10.21
			c2.92,2.85,4.98,2.74,8.08,0.1c2.27-1.93,4.4-4.1,6.89-5.69c3.32-2.12,4.54-4.84,4.52-8.75c-0.11-29.03-0.06-58.06-0.06-87.09
			c0-28.82-0.04-57.65,0.02-86.47c0.02-8.65-3.47-15.29-11.34-18.89c-3.23-1.48-7.16-2-10.77-2.01
			c-39.73-0.13-79.45-0.08-119.18-0.08C80.16,19.52,77.9,19.52,74.99,19.52z M65.25,39.07c0.79-9.9-8.14-19.19-18.57-19.5
			c-11.25-0.33-20.55,8.49-20.33,19.5C39.32,39.07,52.29,39.07,65.25,39.07z"/>
		<path class="st0" d="M144.63,78.96c0,6.38,0.05,12.76-0.02,19.14c-0.09,8.13-5.38,13.59-13.5,13.72c-8.54,0.14-17.08,0.14-25.61,0
			c-8.06-0.14-13.47-5.73-13.5-13.77c-0.05-12.86-0.05-25.72,0-38.59c0.03-7.84,5.61-13.47,13.39-13.53
			c8.64-0.07,17.28-0.08,25.92,0c7.68,0.07,13.11,5.53,13.3,13.27c0.08,3.29,0.02,6.58,0.02,9.88
			C144.63,72.37,144.63,75.67,144.63,78.96z M105.3,98.35c8.86,0,17.43,0,26.05,0c0-13.14,0-26.04,0-39.11c-8.72,0-17.29,0-26.05,0
			C105.3,72.32,105.3,85.21,105.3,98.35z"/>
		<path class="st0" d="M151.29,171.15c-16.35,0-32.7,0-49.04,0c-0.82,0-1.65,0.01-2.47-0.01c-4.77-0.1-7.71-2.58-7.77-6.54
			c-0.07-4.07,2.95-6.72,7.88-6.73c26.84-0.03,53.67-0.01,80.51-0.01c7.61,0,15.22-0.09,22.83,0.03c5.81,0.09,9.08,5.26,6.4,9.88
			c-1.59,2.75-4.2,3.38-7.13,3.38c-14.5-0.01-28.99-0.01-43.49-0.01C156.43,171.15,153.86,171.15,151.29,171.15z"/>
		<path class="st0" d="M151.32,144.75c-17.17,0-34.33,0.01-51.5-0.01c-4.15,0-6.7-1.69-7.6-4.93c-1-3.61,1.45-7.47,5.19-8.05
			c1.11-0.17,2.26-0.14,3.38-0.14c33.72-0.01,67.44-0.01,101.15,0c0.82,0,1.65-0.02,2.47,0.05c3.44,0.3,5.97,2.89,6.11,6.2
			c0.15,3.39-2.37,6.35-5.86,6.8c-0.91,0.12-1.85,0.07-2.77,0.07C185.04,144.75,168.18,144.75,151.32,144.75z"/>
		<path class="st0" d="M184.03,111.85c-6.27,0-12.54,0.06-18.81-0.02c-3.98-0.05-6.66-2.17-7.19-5.42
			c-0.69-4.23,2.07-7.73,6.63-7.77c13.05-0.13,26.1-0.12,39.15,0c4.04,0.04,6.73,2.95,6.71,6.6c-0.02,3.65-2.71,6.46-6.77,6.55
			c-6.57,0.15-13.15,0.04-19.73,0.04C184.03,111.84,184.03,111.85,184.03,111.85z"/>
		<path class="st0" d="M184.03,45.92c6.27,0,12.53-0.02,18.8,0.01c4.64,0.02,7.69,2.64,7.7,6.56c0.01,3.95-2.95,6.54-7.66,6.56
			c-12.53,0.03-25.07,0.04-37.6,0c-4.58-0.02-7.32-2.53-7.32-6.51c0-3.94,2.82-6.56,7.29-6.59
			C171.5,45.88,177.77,45.92,184.03,45.92z"/>
		<path class="st0" d="M183.95,85.45c-6.16,0-12.33,0.02-18.49-0.01c-4.67-0.02-7.56-2.63-7.52-6.68c0.05-3.96,2.79-6.42,7.41-6.43
			c12.53-0.04,25.07-0.04,37.6,0c4.67,0.01,7.65,2.69,7.58,6.63c-0.07,3.92-3.09,6.46-7.78,6.48
			C196.49,85.47,190.22,85.45,183.95,85.45z"/>
	</g>
</g>
</svg>
