<svg enable-background="new 0 0 250 250" viewBox="0 0 250 250" xmlns="http://www.w3.org/2000/svg"><path d="m193.94 102.77c.99-.79 1.49-1.19 1.99-1.59 6.9-5.86 15.73-5.21 21.64 1.74.6.69.89.74 1.49.15.4-.45.84-.79 1.24-1.24 4.62-4.52 10.72-5.86 16.43-3.33 6.01 2.68 9.23 7.4 9.28 14 .1 14.25.05 28.44.05 42.69 0 5.06-3.13 8.24-8.14 8.24-1.99 0-3.97-.15-5.96.05-2.04.2-2.63-.45-2.63-2.58.1-13.9.05-27.8.05-41.7 0-.6 0-1.14 0-1.74-.05-3.23-1.34-4.57-4.42-4.72-2.78-.15-4.72 1.54-5.01 4.37-.05.65 0 1.34 0 1.99v35.99c0 5.26-3.03 8.34-8.29 8.29-2.68-.05-6.3 1.19-7.84-.55-1.34-1.49-.45-5.01-.45-7.64 0-12.31 0-24.67 0-36.98 0-4.37-2.83-6.6-6.5-5.11-2.28.94-3.03 2.78-3.03 5.16.05 11.52 0 22.98 0 34.5v2.73c-.15 4.81-3.23 7.84-7.99 7.89-1.99.05-3.97-.15-5.96.05-2.13.2-2.78-.4-2.73-2.68.1-19.51.05-39.01.05-58.57 0-.84.05-1.64 0-2.48-.1-1.09.35-1.44 1.44-1.44 4.57.05 9.08.05 13.65 0 1.14 0 1.69.3 1.59 1.54-.1.89 0 1.68.05 2.97z" fill="#02b9ef"/><path d="m88.71 129.68v20.35c-.05 8.84-4.67 13.4-13.5 13.45-3.87 0-7.79.05-11.66 0-7.84-.1-13.6-5.31-14-13.15-.3-5.61-.35-11.27-.05-16.88.4-8.04 6.55-13.7 14.69-13.8 2.13-.05 4.32 0 6.45 0 2.08-.05 2.88-1.24 2.83-3.23 0-1.99-.89-2.88-2.88-2.78-2.23.05-4.47.05-6.7 0-5.46-.1-8.49-3.08-8.44-8.44 0-2.18-.99-5.11.45-6.4 1.24-1.09 4.07-.4 6.2-.4 5.56-.05 11.07 0 16.63 0 5.91 0 9.93 4.02 9.98 9.98.05 7.05 0 14.2 0 21.3zm-15.19 11.26c0-.84 0-1.64 0-2.48 0-5.06 0-5.06-5.06-4.86-2.53.1-3.92 1.39-3.97 4.02-.05 2.08-.05 4.12 0 6.2.05 3.57 1.64 4.52 6.8 4.67 3.82.1 1.89-2.58 2.23-4.07.2-1.09-.05-2.33 0-3.48zm59.37-16.67c0 7.59.1 15.24-.05 22.83-.1 5.86-1.49 11.17-7.15 14.3-2.28 1.24-4.77 1.94-7.35 1.99-5.71.1-11.42 0-17.12.1-1.39 0-1.69-.5-1.64-1.74.1-2.08-.05-4.12.05-6.2.1-3.97 3.13-7 7.1-7.15 2.58-.1 5.11-.05 7.69 0 2.08 0 3.23-.84 3.23-3.08 0-2.28-1.09-3.08-3.18-3.13-3.47-.1-6.95.4-10.37-.6-5.91-1.74-10.23-6.65-10.37-12.76-.3-9.68-.1-19.36-.15-29.04 0-1.09.35-1.44 1.44-1.39 4.07.05 8.09.1 12.16 0 1.79-.05 1.54.94 1.54 2.04v21.84c0 3.18 1.49 4.86 4.27 4.96 3.28.1 4.72-1.24 4.72-4.57 0-7.35.05-14.74-.05-22.09 0-1.74.45-2.23 2.18-2.18 3.62.15 7.3.2 10.92 0 1.99-.1 2.28.65 2.23 2.38-.15 7.8-.1 15.64-.1 23.49zm-126.48 11.26c0-8.09 0-16.23 0-24.32 0-7.94 4.86-12.91 12.86-12.81 5.21.05 10.42-.6 15.59.4 6.6 1.29 10.77 6.4 10.82 13.2.05 7.2 0 14.39 0 21.59 0 9.03-5.31 14.54-14.35 14.79-2.73.1-5.46.05-8.19 0-1.24-.05-1.79.35-1.74 1.69.1 1.99.05 3.97 0 5.96-.1 4.27-3.13 7.35-7.35 7.4-2.48.05-5.61 1.04-7.2-.4-1.49-1.34-.4-4.52-.45-6.9-.04-6.85.01-13.75.01-20.6zm14.99-12.16v4.72c0 5.61 0 5.61 5.61 5.11 2.43-.2 3.57-1.39 3.62-3.82.05-2.78-.1-5.61.05-8.39.3-8.04-1.19-7.25-7.74-7.3-1.19 0-1.59.35-1.59 1.54.1 2.68.05 5.41.05 8.14z" fill="#06306f"/><path d="m146.93 135.63c0-6.6-.05-13.25.05-19.85 0-1.54-.35-2.18-2.04-2.13-2.23.1-5.21.74-6.45-.35-1.54-1.44-.35-4.52-.55-6.9 0-.15 0-.35 0-.5 0-2.33-.74-5.06.25-6.8s4.02-.65 6.15-1.19c4.22-1.09 7.4-3.52 9.98-6.9 1.79-2.28 4.02-3.92 6.9-4.47 1.54-.3 2.48-.1 2.38 1.89-.15 2.78 0 5.61-.05 8.44-.05 1.19.4 1.59 1.59 1.54 1.99-.05 3.97.05 5.96-.05 1.19-.05 1.59.4 1.54 1.59-.05 4.07-.05 8.09 0 12.16 0 1.14-.3 1.74-1.54 1.59-.25-.05-.5 0-.74 0-2.18.2-5.21-.99-6.35.5-1.09 1.39-.4 4.27-.4 6.5 0 13.5-.05 26.95.05 40.45 0 1.89-.5 2.48-2.38 2.33-1.79-.15-3.62 0-5.46-.05-5.36-.2-8.89-3.82-8.89-9.18 0-6.21 0-12.41 0-18.62z" fill="#02b9ef"/></svg>