<svg enable-background="new 0 0 250 250" viewBox="0 0 250 250" xmlns="http://www.w3.org/2000/svg"><path d="m152.58 8.23c-64.49-15.22-129.11 24.71-144.34 89.2s24.71 129.11 89.19 144.33 129.09-24.7 144.33-89.17c15.24-64.49-24.68-129.12-89.17-144.35 0 0-.01 0-.01-.01z" fill="#5f259f"/><path d="m179.45 93.69c-.14-4.74-3.97-8.53-8.71-8.61h-16.1l-36.86-42.33c-3.52-3.95-9.01-5.52-14.08-4.02l-12.77 4.02c-1.55.53-2.38 2.21-1.86 3.77.11.34.29.65.51.92l40.26 38.21h-60.98c-1.76-.08-3.24 1.28-3.32 3.04v.3 6.7c.08 4.78 3.94 8.63 8.71 8.71h9.4v32.19c0 24.12 12.74 38.21 34.18 38.21 6.42.2 12.82-.95 18.77-3.36v21.49c-.08 5.85 4.6 10.65 10.45 10.72h.28 9.38c2.16-.15 3.87-1.87 4.02-4.02v-95.87h15.37c1.76.1 3.26-1.24 3.36-3 .01-.12.01-.24 0-.36v-6.71zm-42.97 57.64c-4.23 1.85-8.81 2.76-13.42 2.68-10.72 0-16.08-5.35-16.08-17.42v-32.17h29.5v46.88z" fill="#fff"/></svg>