<svg enable-background="new 0 0 250 250" viewBox="0 0 250 250" xmlns="http://www.w3.org/2000/svg"><path d="m118.2 129.3c-35.53-5.14-57.51-34.61-55.31-66.15 2.22-31.77 28.42-57 58.98-58.1 34.17-1.23 59.85 23.47 64.61 52.34 5.13 31.05-14.98 66.03-54.69 72.09v5.02 100.15c0 1.3.08 2.61-.06 3.9-.42 3.82-3.38 6.7-6.87 6.45-3.82-.27-6.04-2.53-6.57-6.29-.22-1.56-.09-3.17-.09-4.76 0-53.47 0-46.25 0-99.72 0-1.58 0-3.15 0-4.93zm6.84-110.7c-27.02-.03-48.74 21.62-48.75 48.6-.01 26.9 21.8 48.81 48.63 48.86 26.81.05 48.77-21.89 48.76-48.73 0-27.04-21.62-48.7-48.64-48.73z"/></svg>