<?xml version="1.0" encoding="utf-8"?>
<!-- Generator: Adobe Illustrator 26.5.0, SVG Export Plug-In . SVG Version: 6.00 Build 0)  -->
<svg version="1.1" id="_x31_" xmlns="http://www.w3.org/2000/svg" xmlns:xlink="http://www.w3.org/1999/xlink" x="0px" y="0px"
	 viewBox="0 0 512 512" style="enable-background:new 0 0 512 512;" xml:space="preserve">
<style type="text/css">
	.st0{fill:#E00707;}
</style>
<path class="st0" d="M160.2,487c-2.7,0-5.5-1-7.6-3.1l-137-137C5.6,337.1,0,323.7,0,309.3c0-13.7,5.4-27,14.7-36.7L255.1,23.3
	C269.4,8.3,288.6,0,309.3,0h149.3C488.1,0,512,23.9,512,53.3v149.3c0,20.7-8.3,39.9-23.4,54.3l-66.1,63.7c-4.2,4.1-11,4-15.1-0.3
	c-4.1-4.2-4-11,0.3-15.1l66.1-63.8c10.9-10.3,16.8-24.1,16.8-38.8V53.3c0-17.6-14.4-32-32-32H309.3c-14.8,0-28.5,5.9-38.7,16.7
	L30.1,287.5c-5.6,5.7-8.7,13.7-8.7,21.8c0,8.6,3.3,16.6,9.3,22.4l137.1,137.1c4.2,4.2,4.2,10.9,0,15.1
	C165.7,486,162.9,487,160.2,487L160.2,487z"/>
<path class="st0" d="M405.3,149.3c-23.5,0-42.7-19.1-42.7-42.7S381.8,64,405.3,64S448,83.1,448,106.7S428.9,149.3,405.3,149.3z
	 M405.3,85.3c-11.8,0-21.3,9.6-21.3,21.3s9.6,21.3,21.3,21.3s21.3-9.6,21.3-21.3S417.1,85.3,405.3,85.3z"/>
<path class="st0" d="M373.3,512H352c-17.6,0-32-14.4-32-32v-85.3c0-17.6,14.4-32,32-32h21.3c17.6,0,32,14.4,32,32V480
	C405.3,497.6,391,512,373.3,512z M352,384c-5.9,0-10.7,4.8-10.7,10.7V480c0,5.9,4.8,10.7,10.7,10.7h21.3c5.9,0,10.7-4.8,10.7-10.7
	v-85.3c0-5.9-4.8-10.7-10.7-10.7H352z"/>
<path class="st0" d="M256,512h-32c-5.9,0-10.7-4.8-10.7-10.7s4.8-10.7,10.7-10.7h32c11.8,0,21.3-9.6,21.3-21.3S267.8,448,256,448
	h-32c-5.9,0-10.7-4.8-10.7-10.7v-64c0-5.9,4.8-10.7,10.7-10.7h64c5.9,0,10.7,4.8,10.7,10.7S293.9,384,288,384h-53.3v42.7H256
	c23.5,0,42.7,19.1,42.7,42.7S279.5,512,256,512z"/>
<path class="st0" d="M437.3,512c-1.6,0-3.2-0.4-4.8-1.1c-5.3-2.6-7.4-9-4.8-14.3l64-128c2.6-5.3,9.1-7.4,14.3-4.8
	c5.3,2.6,7.4,9,4.8,14.3l-64,128C445,509.8,441.2,512,437.3,512L437.3,512z"/>
<path class="st0" d="M442.7,394.7c-8.8,0-16-7.2-16-16c0-8.8,7.2-16,16-16c8.8,0,16,7.2,16,16C458.7,387.5,451.5,394.7,442.7,394.7z
	"/>
<path class="st0" d="M496,512c-8.8,0-16-7.2-16-16c0-8.8,7.2-16,16-16c8.8,0,16,7.2,16,16C512,504.8,504.8,512,496,512z"/>
</svg>
