<?xml version="1.0" encoding="utf-8"?>
<!-- Generator: Adobe Illustrator 26.5.0, SVG Export Plug-In . SVG Version: 6.00 Build 0)  -->
<svg version="1.1" id="Layer_1" xmlns="http://www.w3.org/2000/svg" xmlns:xlink="http://www.w3.org/1999/xlink" x="0px" y="0px"
	 viewBox="0 0 512 512" style="enable-background:new 0 0 512 512;" xml:space="preserve">
<style type="text/css">
	.st0{fill:#DF1F26;}
</style>
<g>
	<path class="st0" d="M478.88,238.09l-11.1-1.36c-2.51-0.31-4.82-1.78-6.18-3.98l-31.31-52.46c-4.5-7.64-12.67-12.25-21.57-12.25
		h-58.43v-50.26c0-13.93-11.2-25.13-25.13-25.13H36.16c-13.93,0-25.13,11.2-25.13,25.13v230.37c0,13.93,11.2,25.13,25.13,25.13
		h33.72c2.09,25.76,23.77,46.07,50.05,46.07c26.28,0,47.96-20.31,50.05-46.07h176.23c2.09,25.76,23.67,46.07,50.05,46.07
		c26.28,0,47.96-20.31,50.05-46.07h29.53c13.93,0,25.13-11.2,25.13-25.13v-85.13C500.98,250.35,491.55,239.66,478.88,238.09z
		 M119.93,402.6c-18.53,0-33.51-14.97-33.51-33.51c0-18.53,14.97-33.51,33.51-33.51s33.51,14.97,33.51,33.51
		C153.43,387.62,138.46,402.6,119.93,402.6z M333.54,356.52H168.62c-5.55-21.68-25.24-37.7-48.69-37.7
		c-23.46,0-43.14,16.02-48.69,37.7H36.16c-4.61,0-8.38-3.77-8.38-8.38V117.78c0-4.61,3.77-8.38,8.38-8.38h289.01
		c4.61,0,8.38,3.77,8.38,8.38V356.52z M396.37,402.6c-18.53,0-33.51-14.97-33.51-33.51c0-18.53,14.97-33.51,33.51-33.51
		c18.53,0,33.51,14.97,33.51,33.51C429.88,387.62,414.9,402.6,396.37,402.6z M484.33,348.15c0,4.61-3.77,8.38-8.38,8.38h-30.89
		c-5.55-21.68-25.24-37.7-48.69-37.7c-20.63,0-38.32,12.46-46.07,30.16V184.9h58.53c2.93,0,5.76,1.57,7.23,4.08l31.31,52.46
		c3.98,6.6,10.79,11.1,18.53,12.04l11.1,1.36c4.19,0.42,7.33,4.08,7.33,8.27V348.15z"/>
	<path class="st0" d="M103.49,193.38H66.73c-1.78,0-3.25,0.63-4.5,1.88c-1.15,1.36-1.78,2.83-1.78,4.5v68.59
		c0,1.78,0.63,3.25,1.78,4.5c1.36,1.26,2.83,1.88,4.5,1.88v0.1h2.93c1.78,0,3.25-0.52,4.5-1.88c1.26-1.36,1.88-2.83,1.88-4.5V240.4
		c0-0.63,0.31-0.94,0.94-0.94h24.61c1.57,0,3.04-0.52,4.19-1.68c1.15-1.15,1.78-2.62,1.78-4.29c0-1.68-0.63-3.04-1.78-4.19
		c-1.15-1.15-2.51-1.78-4.19-1.78H76.99c-0.63,0-0.94-0.31-0.94-0.94V207.1c0-0.73,0.31-1.05,0.94-1.05h26.49
		c1.78,0,3.25-0.63,4.5-1.78c1.26-1.36,1.88-2.72,1.88-4.5c0-1.78-0.63-3.25-1.88-4.5C106.63,194.01,105.16,193.38,103.49,193.38z"
		/>
	<path class="st0" d="M176.16,251.39c-2.51-6.6-5.55-10.99-9.11-13.19c-0.1,0-0.1-0.1-0.1-0.21c0-0.1,0-0.1,0.1-0.1
		c4.92-1.68,8.69-4.5,11.52-8.48c2.83-3.98,4.29-8.69,4.29-13.93c0-7.33-2.72-13.09-8.17-17.07c-5.45-4.08-13.61-6.18-24.5-6.18
		c-5.86,0-11.94,0.31-18.22,0.94c-1.78,0.1-3.35,0.94-4.5,2.3c-1.15,1.47-1.78,3.04-1.78,4.82v68.06c0,1.78,0.63,3.25,1.88,4.5
		c1.36,1.26,2.83,1.88,4.5,1.88v0.1h2.72c1.68,0,3.14-0.63,4.29-1.88c1.26-1.36,1.88-2.83,1.88-4.5v-24.4
		c0-0.73,0.42-1.05,1.05-1.05h5.13c4.19,0,7.12,0.52,8.8,1.68c1.78,1.15,3.25,3.46,4.61,7.02l6.28,17.17
		c0.63,1.78,1.78,3.14,3.35,4.29c1.57,1.05,3.35,1.57,5.24,1.57h3.46c1.47,0,2.62-0.63,3.46-1.88s1.05-2.62,0.52-3.98L176.16,251.39
		z M147.78,231.29h-5.55c-0.73,0-1.05-0.31-1.05-0.94v-24.19c0-0.63,0.31-0.94,0.94-1.05c2.41-0.31,4.82-0.52,7.02-0.52
		c12.25,0,18.43,4.19,18.43,12.57C167.57,226.58,160.97,231.29,147.78,231.29z"/>
	<path class="st0" d="M280.03,206.05h27.64c1.78,0,3.25-0.63,4.5-1.78c1.26-1.36,1.88-2.72,1.88-4.5c0-1.78-0.63-3.25-1.88-4.5
		c-1.36-1.26-2.83-1.88-4.5-1.88h-37.91c-1.78,0-3.25,0.63-4.5,1.88c-1.26,1.36-1.88,2.83-1.88,4.5v68.59c0,1.78,0.63,3.25,1.88,4.5
		c1.36,1.26,2.83,1.88,4.5,1.88v0.1h37.91c1.78,0,3.25-0.52,4.5-1.88c1.26-1.36,1.88-2.83,1.88-4.5c0-1.68-0.63-3.14-1.88-4.29
		c-1.36-1.26-2.83-1.88-4.5-1.88h-27.64c-0.73,0-1.05-0.42-1.05-1.05v-22.3c0-0.73,0.42-1.05,1.05-1.05h25.76
		c1.68,0,3.04-0.52,4.19-1.68c1.15-1.15,1.78-2.51,1.78-4.19c0-1.57-0.63-3.04-1.78-4.19c-1.05-1.15-2.51-1.78-4.19-1.78h-25.76
		c-0.73,0-1.05-0.42-1.05-1.05V207.1C278.98,206.37,279.4,206.05,280.03,206.05z"/>
	<path class="st0" d="M213.02,206.05h27.64c1.78,0,3.25-0.63,4.5-1.78c1.26-1.36,1.88-2.72,1.88-4.5c0-1.78-0.63-3.25-1.88-4.5
		c-1.36-1.26-2.83-1.88-4.5-1.88h-37.91c-1.78,0-3.25,0.63-4.5,1.88c-1.26,1.36-1.88,2.83-1.88,4.5v68.59c0,1.78,0.63,3.25,1.88,4.5
		c1.36,1.26,2.83,1.88,4.5,1.88v0.1h37.91c1.78,0,3.25-0.63,4.5-1.88c1.26-1.36,1.88-2.83,1.88-4.5c0-1.68-0.63-3.14-1.88-4.29
		c-1.36-1.26-2.83-1.88-4.5-1.88h-27.64c-0.73,0-1.05-0.42-1.05-1.05v-22.3c0-0.73,0.42-1.05,1.05-1.05h25.76
		c1.68,0,3.04-0.52,4.19-1.68c1.15-1.15,1.78-2.51,1.78-4.19c0-1.57-0.63-3.04-1.78-4.19c-1.05-1.15-2.51-1.78-4.19-1.78h-25.76
		c-0.73,0-1.05-0.42-1.05-1.05V207.1C211.97,206.37,212.39,206.05,213.02,206.05z"/>
</g>
</svg>
