<?xml version="1.0" encoding="utf-8"?>
<!-- Generator: Adobe Illustrator 26.5.0, SVG Export Plug-In . SVG Version: 6.00 Build 0)  -->
<svg version="1.1" id="Layer_1" xmlns="http://www.w3.org/2000/svg" xmlns:xlink="http://www.w3.org/1999/xlink" x="0px" y="0px"
	 viewBox="0 0 512 512" style="enable-background:new 0 0 512 512;" xml:space="preserve">
<style type="text/css">
	.st0{fill:#DF1F26;}
</style>
<g>
	<path class="st0" d="M440.4,119.36L315.55,65.02c-38.19-16.71-81.63-16.71-119.82,0L70.89,119.36c-19.6,8.55-32.36,27.8-32.6,49.18
		v173.34c-0.02,21.63,12.78,41.21,32.6,49.86l124.84,54.34c38.19,16.71,81.63,16.71,119.82,0l124.84-54.34
		c19.82-8.65,32.62-28.23,32.6-49.86V168.53C472.75,147.15,459.99,127.91,440.4,119.36z M207.96,191.9l165.19-72.54l50.67,22.14
		l-113.84,47.82C277.6,203.4,241.01,204.33,207.96,191.9z M140.04,192.98l20.38,8.69v24.86l-20.38-9.24V192.98z M164.76,173.69
		l166.96-72.95l7.61,3.4L176.31,176l-3.4,1.49L164.76,173.69z M206.6,88.65c15.48-6.7,32.18-10.12,49.04-10.05
		c14.23,0.01,28.35,2.54,41.71,7.47l-166.96,73.22l-42.93-18.2L206.6,88.65z M81.76,366.87c-9.93-4.33-16.34-14.16-16.3-25V168.53
		c0.03-2.3,0.35-4.58,0.95-6.79l46.6,19.7v35.86c0.16,10.5,6.34,19.96,15.89,24.32l20.38,9.24c3.53,1.66,7.38,2.54,11.28,2.58
		c15.01,0,27.17-12.16,27.17-27.17v-13.58l2.58,1.09c16.4,7.32,33.88,11.91,51.76,13.58v203.77c-12.23-1.29-24.19-4.45-35.46-9.37
		L81.76,366.87z M445.83,341.87c0.04,10.84-6.37,20.66-16.3,25l-124.84,54.34c-11.27,4.92-23.23,8.08-35.46,9.37V226.81
		c17.84-1.66,35.28-6.25,51.62-13.58l124.03-52.57c0.6,2.21,0.92,4.5,0.95,6.79V341.87z"/>
	<path class="st0" d="M352.77,232.79l-42.79,15.89c-7.05,2.56-10.69,10.35-8.13,17.4c1.95,5.37,7.04,8.94,12.75,8.95
		c1.58,0,3.14-0.28,4.62-0.82l43.47-15.89c7.12-2.35,10.99-10.03,8.64-17.16c-2.35-7.12-10.03-10.99-17.16-8.64
		c-0.24,0.08-0.48,0.17-0.72,0.26L352.77,232.79z"/>
</g>
</svg>
