<svg enable-background="new 0 0 250 250" viewBox="0 0 250 250" xmlns="http://www.w3.org/2000/svg"><path d="m245 102.5c-1.15 1.45-2.17 3.03-3.47 4.33-44.88 44.92-89.77 89.82-134.7 134.7-1.3 1.3-2.88 2.32-4.33 3.47-.94 0-1.88 0-2.81 0-.98-.62-2.11-1.09-2.92-1.89-8.59-8.51-17.16-17.05-25.66-25.65-2.53-2.56-2.46-5.28-.35-8.21 1.5-2.08 3.05-4.18 4.14-6.47 4.33-9.18 1.57-19.68-6.58-25.65-8.09-5.93-19.07-5.45-26.54 1.16-3.93 3.49-6.49 3.41-10.27-.37-7.78-7.77-15.58-15.54-23.31-23.36-1.24-1.25-2.15-2.82-3.21-4.25 0-.94 0-1.88 0-2.81 1.15-1.45 2.18-3.02 3.48-4.33 44.88-44.92 89.78-89.82 134.7-134.7 1.3-1.3 2.88-2.32 4.33-3.48h2.81c.92.57 2 .98 2.75 1.72 8.7 8.62 17.39 17.26 25.99 25.98 2.34 2.38 2.31 5.17.31 7.84-.42.56-.88 1.09-1.31 1.65-7.24 9.4-6.52 21.21 1.65 29.02 8.06 7.72 21.55 7.55 29.08.06 3.08-3.07 6.06-2.82 9.21.3 7.97 7.92 15.92 15.86 23.82 23.85 1.24 1.25 2.14 2.83 3.2 4.25-.01.96-.01 1.9-.01 2.84zm-207.35 64.26c7.69-5.43 16.25-6.94 25.38-4.95 20.1 4.38 33.66 27.78 21.07 48.91-.92 1.55-.73 2.34.48 3.51 3.72 3.57 7.33 7.26 10.96 10.91 1.79 1.8 3.54 3.65 5.09 5.25 30.39-30.38 60.48-60.47 90.73-90.71-3.28-3.27-6.7-6.68-10.12-10.08-1.57-1.56-2.59-3.36-2.09-5.65.5-2.31 1.91-3.88 4.17-4.64 2.35-.79 4.33-.03 5.98 1.61 3.54 3.51 7.01 7.08 10.63 10.76 10.44-10.29 20.64-20.35 30.62-30.18-6.32-6.32-12.21-12.22-18.18-18.2-.02.01-.26.06-.44.19-14.9 10.73-39.21 5.91-48.23-14.69-4.46-10.18-3.28-20.1 2.16-29.65.4-.7.65-2.12.26-2.52-5.59-5.77-11.29-11.42-16.68-16.81-10.25 10.25-20.39 20.38-30.81 30.8.5.4 1.3.92 1.96 1.57 2.89 2.85 5.81 5.68 8.6 8.64 2.5 2.65 2.42 5.94-.03 8.36-2.44 2.41-5.69 2.43-8.36-.07-2.11-1.97-4.16-4.02-6.14-6.12-1.48-1.57-2.8-3.29-3.95-4.67-30.7 30.7-60.79 60.79-90.78 90.78 5.74 5.73 11.65 11.61 17.72 17.65z"/><path d="m172.96 106c-.07 3.47-1.26 5.3-3.48 6.36-2.15 1.03-4.28.8-6.13-.76-1.19-1-2.26-2.15-3.37-3.25-6.91-6.9-13.83-13.78-20.71-20.71-2.73-2.75-2.95-6.04-.7-8.55 2.43-2.71 6.07-2.76 8.88-.01 4.24 4.15 8.41 8.38 12.6 12.58 3.53 3.53 7.14 7 10.56 10.64 1.17 1.23 1.86 2.91 2.35 3.7z"/></svg>